<svg xmlns="http://www.w3.org/2000/svg" width="27.474" height="27.474" viewBox="0 0 27.474 27.474">
  <path id="Icon_material-filter-tilt-shift" data-name="Icon material-filter-tilt-shift" d="M15.431,5.864V3.075A13.735,13.735,0,0,0,8.087,6.126L10.047,8.1a10.964,10.964,0,0,1,5.384-2.237Zm10.106.262a13.735,13.735,0,0,0-7.345-3.051V5.864A10.964,10.964,0,0,1,23.577,8.1Zm2.223,9.305h2.789A13.735,13.735,0,0,0,27.5,8.087l-1.974,1.96A10.964,10.964,0,0,1,27.76,15.431ZM8.1,10.047,6.126,8.087a13.735,13.735,0,0,0-3.051,7.345H5.864A10.964,10.964,0,0,1,8.1,10.047ZM5.864,18.193H3.075a13.735,13.735,0,0,0,3.051,7.345L8.1,23.563a10.863,10.863,0,0,1-2.237-5.371Zm15.09-1.381a4.142,4.142,0,1,0-4.142,4.142A4.136,4.136,0,0,0,20.954,16.812Zm4.57,6.765L27.5,25.551a13.78,13.78,0,0,0,3.051-7.345H27.76a10.97,10.97,0,0,1-2.237,5.371ZM18.193,27.76v2.789A13.735,13.735,0,0,0,25.538,27.5l-1.974-1.974a10.863,10.863,0,0,1-5.371,2.237ZM8.087,27.5a13.78,13.78,0,0,0,7.345,3.051V27.76a10.964,10.964,0,0,1-5.384-2.237L8.087,27.5Z" transform="translate(-3.075 -3.075)" fill="#00a3f8"/>
</svg>
